{"glyphs":{":":{"x_min":0,"x_max":196,"ha":196,"o":"m 50 309 b 50 303 54 299 60 299 l 136 299 b 142 299 146 303 146 309 l 146 389 b 146 395 142 399 136 399 l 60 399 b 54 399 50 395 50 389 z m 50 20 b 50 14 54 10 60 10 l 136 10 b 142 10 146 14 146 20 l 146 100 b 146 106 142 110 136 110 l 60 110 b 54 110 50 106 50 100 z"},"$":{"x_min":0,"x_max":488,"ha":488,"o":"m 281 -152 b 287 -152 291 -148 291 -142 l 291 19 b 377 40 438 120 438 213 b 438 371 364 412 291 440 l 291 669 b 320 652 342 620 342 585 l 342 503 b 342 497 346 493 352 493 l 428 493 b 434 493 438 497 438 503 l 438 585 b 438 673 374 750 291 772 l 291 875 b 291 881 287 885 281 885 l 205 885 b 199 885 195 881 195 875 l 195 772 b 107 750 50 670 50 574 b 50 431 122 400 195 376 l 195 121 b 165 138 145 169 145 207 l 145 296 b 145 302 141 306 135 306 l 60 306 b 54 306 50 302 50 296 l 50 207 b 50 112 110 40 195 20 l 195 -142 b 195 -148 199 -152 205 -152 z m 314 136 b 307 129 299 124 291 119 l 291 333 b 321 311 342 276 342 212 b 342 183 330 158 314 136 z m 145 585 b 145 620 166 651 195 668 l 195 482 b 165 502 145 531 145 585 z"},"?":{"x_min":0,"x_max":488,"ha":488,"o":"m 181 231 b 181 225 185 221 191 221 l 267 221 b 273 221 277 225 277 231 l 277 228 b 277 426 438 317 441 569 b 442 682 359 778 243 778 b 139 778 52 678 51 574 l 50 536 b 50 530 54 526 60 526 l 136 526 b 142 526 146 530 146 536 l 146 585 b 146 637 192 682 243 682 b 295 682 343 655 343 585 b 343 359 190 502 181 247 z m 180 20 b 180 14 184 10 190 10 l 266 10 b 272 10 276 14 276 20 l 276 100 b 276 106 272 110 266 110 l 190 110 b 184 110 180 106 180 100 z"},"<":{"x_min":0,"x_max":584,"ha":584,"o":"m 529 110 l 529 198 l 153 354 l 529 508 l 529 595 l 55 395 l 55 313 z"},"'":{"x_min":0,"x_max":196,"ha":196,"o":"m 136 547 b 142 547 146 551 146 557 l 146 768 b 146 774 142 778 136 778 l 60 778 b 54 778 50 774 50 768 l 50 557 b 50 551 54 547 60 547 z"},"=":{"x_min":0,"x_max":424,"ha":424,"o":"m 50 309 b 50 303 54 299 60 299 l 360 299 b 366 299 370 303 370 309 l 370 389 b 370 395 366 399 360 399 l 60 399 b 54 399 50 395 50 389 z m 50 149 b 50 143 54 139 60 139 l 360 139 b 366 139 370 143 370 149 l 370 229 b 370 235 366 239 360 239 l 60 239 b 54 239 50 235 50 229 z"},"a":{"x_min":0,"x_max":588,"ha":588,"o":"m 448 14 l 527 14 b 532 14 538 21 537 26 l 330 768 b 329 771 323 778 319 778 l 268 778 b 264 778 258 772 257 768 l 51 26 b 50 21 56 14 61 14 l 137 14 b 141 14 147 21 148 24 l 198 197 l 390 197 l 437 24 b 438 20 444 14 448 14 z m 363 293 l 223 293 l 293 539 z"},"L":{"x_min":0,"x_max":472,"ha":472,"o":"m 60 14 l 412 14 b 418 14 422 18 422 24 l 422 99 b 422 105 418 108 412 108 l 146 108 l 146 768 b 146 774 142 778 136 778 l 60 778 b 54 778 50 774 50 768 l 50 24 b 50 18 54 14 60 14 z"},"3":{"x_min":0,"x_max":514,"ha":514,"o":"m 381 207 b 381 181 357 156 340 137 l 340 138 b 322 120 297 108 271 108 b 219 108 146 155 146 207 l 146 268 l 51 268 l 51 207 b 51 96 161 14 271 14 b 380 14 477 98 477 207 l 477 279 b 477 337 447 390 403 425 b 441 460 464 511 464 568 l 464 590 b 464 697 378 783 271 783 b 163 783 76 699 76 590 l 76 569 l 171 569 l 171 590 b 171 644 218 687 271 687 b 325 687 368 644 368 590 l 368 568 b 368 542 357 517 340 498 l 340 499 b 322 481 300 470 275 469 l 275 375 b 337 371 381 326 381 279 z"},";":{"x_min":0,"x_max":196,"ha":196,"o":"m 50 20 b 50 14 54 10 60 10 l 98 10 l 90 -79 b 89 -85 94 -89 100 -89 l 107 -89 b 120 -89 146 -12 146 11 l 146 100 b 146 102 145 104 144 105 b 144 106 144 106 143 107 l 138 110 l 136 110 l 110 110 l 107 110 l 60 110 b 54 110 50 106 50 100 z m 50 309 b 50 303 54 299 60 299 l 136 299 b 142 299 146 303 146 309 l 146 389 b 146 395 142 399 136 399 l 60 399 b 54 399 50 395 50 389 z"},"J":{"x_min":0,"x_max":489,"ha":489,"o":"m 50 292 l 50 207 b 50 97 136 14 245 14 b 353 14 439 98 439 207 l 439 768 b 439 774 435 778 429 778 l 353 778 b 347 778 343 774 343 768 l 343 207 b 343 181 332 156 315 137 l 315 138 b 297 120 271 108 245 108 b 219 108 193 119 175 138 l 175 137 b 134 180 146 237 146 292 b 146 298 142 302 136 302 l 60 302 b 54 302 50 298 50 292 z"},"V":{"x_min":0,"x_max":567,"ha":567,"o":"m 138 778 l 61 778 b 57 778 50 770 51 766 l 238 48 b 240 40 243 14 255 14 l 312 14 b 323 14 328 40 330 48 l 516 766 b 517 770 510 778 506 778 l 428 778 b 423 778 418 772 417 768 b 399 714 388 656 374 601 b 344 484 314 367 283 250 l 149 768 b 148 771 142 778 138 778 z"},"\"":{"x_min":0,"x_max":332,"ha":332,"o":"m 279 547 b 285 547 289 551 289 557 l 289 768 b 289 774 285 778 279 778 l 203 778 b 197 778 193 774 193 768 l 193 557 b 193 551 197 547 203 547 z m 136 547 b 142 547 146 551 146 557 l 146 768 b 146 774 142 778 136 778 l 60 778 b 54 778 50 774 50 768 l 50 557 b 50 551 54 547 60 547 z"},"7":{"x_min":0,"x_max":471,"ha":471,"o":"m 143 24 b 143 18 147 14 153 14 l 228 14 b 234 14 238 18 238 24 l 421 684 l 421 768 b 421 774 417 778 411 778 l 60 778 b 54 778 50 774 50 768 l 50 692 b 50 686 54 682 60 682 l 306 678 z"},"S":{"x_min":0,"x_max":488,"ha":488,"o":"m 438 503 l 438 585 b 438 689 349 778 245 778 b 129 778 50 687 50 574 b 50 288 342 452 342 212 b 342 183 330 158 313 135 l 314 136 b 296 119 270 108 245 108 b 189 108 145 151 145 207 l 145 296 b 145 302 141 306 135 306 l 60 306 b 54 306 50 302 50 296 l 50 207 b 50 95 134 14 245 14 b 355 14 438 105 438 213 b 438 528 145 380 145 585 b 145 638 193 682 245 682 b 296 682 342 637 342 585 l 342 503 b 342 497 346 493 352 493 l 428 493 b 434 493 438 497 438 503 z"},"}":{"x_min":0,"x_max":334,"ha":334,"o":"m 311 431 b 262 432 229 459 218 504 b 213 527 211 565 210 619 b 210 674 209 710 207 727 b 199 808 169 840 116 855 b 104 858 84 860 56 860 l 28 860 l 28 783 l 44 783 b 77 783 100 777 111 765 b 122 753 128 726 128 683 b 128 598 130 544 133 522 b 139 487 149 460 163 441 b 177 422 199 406 230 391 b 194 376 168 353 152 322 b 136 291 128 241 128 171 b 128 108 127 70 126 58 b 121 14 105 -2 44 -2 l 28 -2 l 28 -78 l 56 -78 b 88 -78 111 -76 125 -71 b 166 -55 195 -22 203 29 b 208 55 210 97 210 156 b 211 215 213 255 218 277 b 223 300 234 317 250 330 b 266 343 286 350 311 351 z"},"Z":{"x_min":0,"x_max":509,"ha":509,"o":"m 320 682 b 298 629 50 38 50 26 b 50 20 54 14 60 14 l 430 14 b 436 14 440 18 440 24 l 440 99 b 440 105 436 108 430 108 l 187 108 b 207 156 459 763 459 768 b 459 774 454 778 448 778 l 78 778 b 72 778 68 774 68 768 l 68 692 b 68 686 72 682 78 682 l 320 682 z"},"x":{"x_min":0,"x_max":558,"ha":558,"o":"m 190 778 l 108 778 b 102 778 98 772 98 766 b 98 759 214 481 225 454 b 211 420 50 33 50 25 b 50 21 52 14 58 14 l 140 14 b 144 14 147 16 149 20 b 195 119 235 226 277 327 l 406 20 b 408 16 412 14 416 14 l 498 14 b 504 14 508 19 508 25 b 508 32 345 421 331 454 b 342 480 460 760 460 767 b 460 773 456 778 450 778 l 368 778 b 364 778 360 776 358 772 l 277 578 b 264 611 204 778 190 778 z"},")":{"x_min":0,"x_max":333,"ha":333,"o":"m 124 -103 b 172 -42 213 29 246 111 b 280 193 297 278 297 366 b 297 443 284 518 259 589 b 230 671 185 753 124 835 l 61 835 b 100 766 126 718 139 689 b 159 644 175 597 186 548 b 200 488 207 427 207 366 b 207 209 158 53 61 -103 l 124 -103 z"},"&":{"x_min":0,"x_max":667,"ha":667,"o":"m 475 84 b 513 40 550 6 585 -17 l 644 53 b 603 83 565 120 532 163 b 559 204 580 255 596 317 l 504 337 b 496 299 485 266 470 237 l 342 401 b 432 449 477 507 477 575 b 477 617 461 653 430 683 b 399 713 360 728 311 728 b 260 728 217 712 183 680 b 150 649 133 611 133 568 b 133 525 149 486 213 411 b 100 358 43 286 43 197 b 43 148 60 103 95 62 b 138 13 197 -12 270 -12 b 349 -12 418 20 475 84 z m 257 503 b 234 530 223 554 223 577 b 223 621 259 656 306 656 b 353 656 387 621 387 573 b 387 552 381 533 370 516 b 359 499 335 480 296 458 z m 420 154 b 387 102 323 65 271 65 b 228 65 195 81 172 112 b 149 143 138 174 138 203 b 138 250 163 297 259 354 z"},"_":{"x_min":0,"x_max":556,"ha":556,"o":"m 567 -199 l 567 -135 l -15 -135 l -15 -199 z"},"v":{"x_min":0,"x_max":567,"ha":567,"o":"m 138 778 l 61 778 b 57 778 50 770 51 766 l 238 48 b 240 40 243 14 255 14 l 312 14 b 323 14 328 40 330 48 l 516 766 b 517 770 510 778 506 778 l 428 778 b 423 778 418 772 417 768 b 399 714 388 656 374 601 b 344 484 314 367 283 250 l 149 768 b 148 771 142 778 138 778 z"},"O":{"x_min":0,"x_max":488,"ha":488,"o":"m 438 207 l 438 585 b 438 692 352 778 245 778 b 137 778 50 694 50 585 l 50 207 b 50 96 135 14 245 14 b 354 14 438 98 438 207 z m 342 585 l 342 207 b 342 181 331 156 314 137 l 314 138 b 296 120 271 108 245 108 b 193 108 145 155 145 207 l 145 585 b 145 639 192 682 245 682 b 299 682 342 639 342 585 z"},"(":{"x_min":0,"x_max":333,"ha":333,"o":"m 297 -101 b 200 55 151 211 151 368 b 151 429 158 490 172 551 b 183 600 199 647 219 692 b 232 721 258 769 297 837 l 234 837 b 173 755 127 673 98 591 b 73 520 61 445 61 368 b 61 280 78 195 111 113 b 144 31 185 -40 234 -101 z"},"C":{"x_min":0,"x_max":488,"ha":488,"o":"m 352 302 b 346 302 342 298 342 292 l 342 207 b 342 181 329 156 312 137 l 312 138 b 295 121 270 108 245 108 b 189 108 145 151 145 207 l 145 585 b 145 638 193 682 245 682 b 296 682 342 636 342 585 l 342 500 b 342 494 346 490 352 490 l 428 490 b 434 490 438 494 438 500 l 438 768 b 438 774 434 778 428 778 b 398 778 374 763 360 737 b 327 761 287 778 245 778 b 136 778 50 695 50 585 l 50 207 b 50 95 133 14 245 14 b 353 14 438 99 438 207 l 438 292 b 438 298 434 302 428 302 l 352 302 z"},"W":{"x_min":0,"x_max":772,"ha":772,"o":"m 138 778 l 61 778 b 57 778 50 770 51 766 l 239 48 b 241 41 246 14 255 14 l 314 14 b 324 14 328 40 330 48 b 349 119 369 189 388 259 b 403 188 425 118 443 48 b 445 40 448 14 460 14 b 530 14 521 -2 534 48 l 721 766 b 722 770 715 778 711 778 l 634 778 b 630 778 624 772 623 768 l 557 512 b 534 424 511 337 489 249 l 436 453 b 434 456 430 462 425 462 l 348 462 b 344 462 338 456 337 453 l 284 247 l 149 768 b 148 771 142 778 138 778 z"},"A":{"x_min":0,"x_max":588,"ha":588,"o":"m 448 14 l 527 14 b 532 14 538 21 537 26 l 330 768 b 329 771 323 778 319 778 l 268 778 b 264 778 258 772 257 768 l 51 26 b 50 21 56 14 61 14 l 137 14 b 141 14 147 21 148 24 l 198 197 l 390 197 l 437 24 b 438 20 444 14 448 14 z m 363 293 l 223 293 l 293 539 z"},"f":{"x_min":0,"x_max":471,"ha":471,"o":"m 145 391 l 277 391 b 283 391 287 395 287 401 l 287 476 b 287 482 283 486 277 486 l 145 486 l 145 682 l 411 682 b 417 682 421 686 421 692 l 421 768 b 421 774 417 778 411 778 l 60 778 b 54 778 50 774 50 768 l 50 24 b 50 18 54 14 60 14 l 135 14 b 141 14 145 18 145 24 l 145 391 z"},"Q":{"x_min":0,"x_max":513,"ha":513,"o":"m 438 207 l 438 585 b 438 689 349 778 245 778 b 138 778 50 692 50 585 l 50 207 b 50 99 138 14 245 14 b 285 14 324 23 357 48 b 364 41 389 13 397 13 b 400 13 403 14 405 16 l 404 16 b 414 25 463 65 463 76 b 463 84 426 117 418 125 b 430 151 438 179 438 207 z m 341 201 l 350 193 l 341 189 l 341 201 z m 195 215 b 195 204 275 130 287 118 b 275 113 258 108 245 108 b 192 108 145 153 145 207 l 145 585 b 145 640 191 682 245 682 b 299 682 342 639 342 585 l 342 207 b 342 205 341 203 341 201 l 266 277 l 260 279 b 257 280 253 278 252 275 l 252 277 b 243 268 195 225 195 215 z"},"w":{"x_min":0,"x_max":772,"ha":772,"o":"m 138 778 l 61 778 b 57 778 50 770 51 766 l 239 48 b 241 41 246 14 255 14 l 314 14 b 324 14 328 40 330 48 b 349 119 369 189 388 259 b 403 188 425 118 443 48 b 445 40 448 14 460 14 b 530 14 521 -2 534 48 l 721 766 b 722 770 715 778 711 778 l 634 778 b 630 778 624 772 623 768 l 557 512 b 534 424 511 337 489 249 l 436 453 b 434 456 430 462 425 462 l 348 462 b 344 462 338 456 337 453 l 284 247 l 149 768 b 148 771 142 778 138 778 z"},"-":{"x_min":0,"x_max":424,"ha":424,"o":"m 50 309 b 50 303 54 299 60 299 l 360 299 b 366 299 370 303 370 309 l 370 389 b 370 395 366 399 360 399 l 60 399 b 54 399 50 395 50 389 z"},"E":{"x_min":0,"x_max":472,"ha":472,"o":"m 146 108 l 146 391 l 279 391 b 285 391 289 395 289 401 l 289 476 b 289 482 285 486 279 486 l 146 486 l 146 682 l 412 682 b 418 682 422 686 422 692 l 422 768 b 422 774 418 778 412 778 l 60 778 b 54 778 50 774 50 768 l 50 24 b 50 18 54 14 60 14 l 412 14 b 418 14 422 18 422 24 l 422 99 b 422 105 418 108 412 108 l 146 108 z"},"s":{"x_min":0,"x_max":488,"ha":488,"o":"m 438 503 l 438 585 b 438 689 349 778 245 778 b 129 778 50 687 50 574 b 50 288 342 452 342 212 b 342 183 330 158 313 135 l 314 136 b 296 119 270 108 245 108 b 189 108 145 151 145 207 l 145 296 b 145 302 141 306 135 306 l 60 306 b 54 306 50 302 50 296 l 50 207 b 50 95 134 14 245 14 b 355 14 438 105 438 213 b 438 528 145 380 145 585 b 145 638 193 682 245 682 b 296 682 342 637 342 585 l 342 503 b 342 497 346 493 352 493 l 428 493 b 434 493 438 497 438 503 z"},">":{"x_min":0,"x_max":584,"ha":584,"o":"m 529 395 l 55 595 l 55 508 l 430 354 l 55 198 l 55 110 l 529 313 z"},"l":{"x_min":0,"x_max":472,"ha":472,"o":"m 60 14 l 412 14 b 418 14 422 18 422 24 l 422 99 b 422 105 418 108 412 108 l 146 108 l 146 768 b 146 774 142 778 136 778 l 60 778 b 54 778 50 774 50 768 l 50 24 b 50 18 54 14 60 14 z"},"8":{"x_min":0,"x_max":514,"ha":514,"o":"m 477 279 b 477 337 447 390 403 425 b 441 460 464 511 464 568 l 464 590 b 464 697 378 783 271 783 b 163 783 76 699 76 590 l 76 568 b 76 511 98 462 135 427 b 85 392 51 339 51 279 l 51 207 b 51 96 161 14 271 14 b 380 14 477 98 477 207 z m 381 207 b 381 181 357 156 340 137 l 340 138 b 322 120 297 108 271 108 b 219 108 146 155 146 207 l 146 279 b 146 328 198 374 266 376 b 333 376 381 328 381 279 z m 368 568 b 368 542 357 517 340 498 l 340 499 b 321 480 297 469 270 469 b 218 469 171 516 171 568 l 171 590 b 171 644 218 687 271 687 b 325 687 368 644 368 590 z"},"\\":{"x_min":0,"x_max":565,"ha":565,"o":"m 474 -152 l 563 -152 b 570 -152 573 -148 570 -142 l 106 871 b 104 877 98 881 91 881 l 2 881 b -5 881 -8 877 -6 871 l 458 -142 b 461 -148 467 -152 474 -152 z"},"e":{"x_min":0,"x_max":472,"ha":472,"o":"m 146 108 l 146 391 l 279 391 b 285 391 289 395 289 401 l 289 476 b 289 482 285 486 279 486 l 146 486 l 146 682 l 412 682 b 418 682 422 686 422 692 l 422 768 b 422 774 418 778 412 778 l 60 778 b 54 778 50 774 50 768 l 50 24 b 50 18 54 14 60 14 l 412 14 b 418 14 422 18 422 24 l 422 99 b 422 105 418 108 412 108 l 146 108 z"},"b":{"x_min":0,"x_max":470,"ha":470,"o":"m 50 768 l 50 24 b 50 18 54 14 60 14 l 312 14 b 374 14 420 60 420 122 l 420 378 b 420 400 415 422 402 440 b 416 458 420 481 420 503 l 420 666 b 420 695 411 724 390 745 l 390 744 b 370 765 341 778 312 778 l 60 778 b 54 778 50 774 50 768 z m 146 108 l 146 391 l 312 391 b 317 391 324 383 324 378 l 324 122 b 324 115 320 108 312 108 z m 146 486 l 146 682 l 312 682 b 319 682 324 672 324 666 l 324 503 b 324 493 320 490 312 486 z"},"%":{"x_min":0,"x_max":717,"ha":717,"o":"m 675 164 l 675 225 b 675 306 610 371 529 371 b 447 371 381 307 381 225 l 381 164 b 381 80 445 18 529 18 b 611 18 675 82 675 164 z m 602 225 l 602 164 b 602 145 594 126 581 111 l 581 112 b 567 98 548 89 529 89 b 489 89 453 125 453 164 l 453 225 b 453 266 489 298 529 298 b 570 298 602 266 602 225 z m 230 14 b 237 14 243 18 246 24 l 600 773 b 602 779 599 783 592 783 l 503 783 b 496 783 490 779 488 773 l 134 24 b 131 18 134 14 141 14 z m 344 632 b 344 713 279 778 198 778 b 116 778 50 714 50 632 l 50 571 b 50 487 114 425 198 425 b 280 425 344 489 344 571 z m 271 571 b 271 552 263 533 250 518 l 250 519 b 236 505 217 496 198 496 b 158 496 122 532 122 571 l 122 632 b 122 673 158 705 198 705 b 239 705 271 673 271 632 z"},"m":{"x_min":0,"x_max":543,"ha":543,"o":"m 143 425 b 183 303 222 182 261 60 b 262 56 266 52 270 52 b 275 52 279 56 280 60 l 317 172 b 344 255 371 338 398 421 l 398 24 b 398 19 402 14 407 14 l 483 14 b 489 14 493 18 493 24 l 493 768 b 493 774 489 778 483 778 l 416 778 b 403 778 402 751 400 743 l 400 744 l 270 345 l 141 745 b 137 758 135 769 124 778 l 58 778 b 52 778 50 773 50 768 l 50 24 b 50 19 52 14 58 14 l 133 14 b 139 14 143 18 143 24 l 143 425 z"},"#":{"x_min":0,"x_max":597,"ha":597,"o":"m 50 149 b 50 143 54 139 60 139 l 139 139 l 120 35 b 119 29 122 25 128 25 l 208 25 b 214 25 219 29 220 35 l 239 139 l 299 139 l 280 35 b 279 29 282 25 288 25 l 368 25 b 374 25 379 29 380 35 l 399 139 l 529 139 b 535 139 539 143 539 149 l 539 229 b 539 235 535 239 529 239 l 418 239 l 429 299 l 529 299 b 535 299 539 303 539 309 l 539 389 b 539 395 535 399 529 399 l 447 399 l 467 504 b 468 510 465 514 459 514 l 379 514 b 373 514 368 510 367 504 l 347 399 l 287 399 l 307 504 b 308 510 305 514 299 514 l 219 514 b 213 514 208 510 207 504 l 187 399 l 60 399 b 54 399 50 395 50 389 l 50 309 b 50 303 54 299 60 299 l 169 299 l 158 239 l 60 239 b 54 239 50 235 50 229 z m 269 299 l 329 299 l 318 239 l 258 239 z"},",":{"x_min":0,"x_max":196,"ha":196,"o":"m 50 20 b 50 14 54 10 60 10 l 98 10 l 90 -79 b 89 -85 94 -89 100 -89 l 107 -89 b 120 -89 146 -12 146 11 l 146 100 b 146 102 145 104 144 105 b 144 106 144 106 143 107 l 138 110 l 136 110 l 110 110 l 107 110 l 60 110 b 54 110 50 106 50 100 z"},"n":{"x_min":0,"x_max":471,"ha":471,"o":"m 326 303 l 142 748 b 139 755 133 778 122 778 l 60 778 b 54 778 50 774 50 768 l 50 24 b 50 18 54 14 60 14 l 136 14 b 142 14 146 18 146 24 l 146 488 l 329 41 b 332 33 336 14 348 14 l 411 14 b 417 14 421 18 421 24 l 421 768 b 421 774 417 778 411 778 l 336 778 b 330 778 326 774 326 768 l 326 303 z"},"h":{"x_min":0,"x_max":471,"ha":471,"o":"m 60 14 l 136 14 b 142 14 146 18 146 24 l 146 391 l 326 391 l 326 24 b 326 18 330 14 336 14 l 411 14 b 417 14 421 18 421 24 l 421 768 b 421 774 417 778 411 778 l 336 778 b 330 778 326 774 326 768 l 326 486 l 146 486 l 146 768 b 146 774 142 778 136 778 l 60 778 b 54 778 50 774 50 768 l 50 24 b 50 18 54 14 60 14 z"},"z":{"x_min":0,"x_max":509,"ha":509,"o":"m 320 682 b 298 629 50 38 50 26 b 50 20 54 14 60 14 l 430 14 b 436 14 440 18 440 24 l 440 99 b 440 105 436 108 430 108 l 187 108 b 207 156 459 763 459 768 b 459 774 454 778 448 778 l 78 778 b 72 778 68 774 68 768 l 68 692 b 68 686 72 682 78 682 l 320 682 z"},"B":{"x_min":0,"x_max":470,"ha":470,"o":"m 50 768 l 50 24 b 50 18 54 14 60 14 l 312 14 b 374 14 420 60 420 122 l 420 378 b 420 400 415 422 402 440 b 416 458 420 481 420 503 l 420 666 b 420 695 411 724 390 745 l 390 744 b 370 765 341 778 312 778 l 60 778 b 54 778 50 774 50 768 z m 146 108 l 146 391 l 312 391 b 317 391 324 383 324 378 l 324 122 b 324 115 320 108 312 108 z m 146 486 l 146 682 l 312 682 b 319 682 324 672 324 666 l 324 503 b 324 493 320 490 312 486 z"},"K":{"x_min":0,"x_max":503,"ha":503,"o":"m 444 778 l 354 778 b 352 778 350 778 348 777 l 146 467 l 146 768 b 146 774 142 778 136 778 l 60 778 b 54 778 50 774 50 768 l 50 24 b 50 18 54 14 60 14 l 136 14 b 142 14 146 18 146 24 l 146 292 b 161 313 174 335 186 357 l 318 30 b 319 27 327 14 331 14 l 411 14 b 417 14 421 20 421 26 b 421 34 265 419 251 454 b 269 482 453 756 453 769 b 453 775 449 778 444 778 z"},"R":{"x_min":0,"x_max":491,"ha":491,"o":"m 60 14 l 135 14 b 141 14 145 18 145 24 l 145 391 l 311 391 b 318 388 321 384 325 378 l 325 24 b 325 18 329 14 335 14 l 431 14 b 437 14 441 18 441 24 b 441 32 421 41 421 61 l 421 378 b 421 400 414 422 401 440 b 414 458 421 481 421 503 l 421 666 b 421 727 373 778 311 778 l 60 778 b 54 778 50 774 50 768 l 50 24 b 50 18 54 14 60 14 z m 145 486 l 145 682 l 311 682 b 317 680 325 673 325 666 l 325 503 b 325 499 321 494 320 490 b 319 489 313 486 311 486 z"},"T":{"x_min":0,"x_max":472,"ha":472,"o":"m 285 682 l 412 682 b 418 682 422 686 422 692 l 422 768 b 422 774 418 778 412 778 l 60 778 b 54 778 50 774 50 768 l 50 692 b 50 686 54 682 60 682 l 189 682 l 189 24 b 189 18 193 14 199 14 l 275 14 b 281 14 285 18 285 24 l 285 682 z"},"P":{"x_min":0,"x_max":471,"ha":471,"o":"m 60 14 l 135 14 b 141 14 145 18 145 24 l 145 391 l 311 391 b 340 391 369 403 388 425 l 388 424 b 409 445 421 473 421 503 l 421 666 b 421 724 370 778 311 778 l 60 778 b 54 778 50 774 50 768 l 50 24 b 50 18 54 14 60 14 z m 311 486 l 145 486 l 145 682 l 311 682 b 316 682 325 671 325 666 l 325 503 b 325 499 321 494 320 490 b 319 489 312 486 311 486 z"},"|":{"x_min":0,"x_max":196,"ha":196,"o":"m 60 -152 l 136 -152 b 142 -152 146 -148 146 -142 l 146 875 b 146 881 142 885 136 885 l 60 885 b 54 885 50 881 50 875 l 50 -142 b 50 -148 54 -152 60 -152 z"},"t":{"x_min":0,"x_max":472,"ha":472,"o":"m 285 682 l 412 682 b 418 682 422 686 422 692 l 422 768 b 422 774 418 778 412 778 l 60 778 b 54 778 50 774 50 768 l 50 692 b 50 686 54 682 60 682 l 189 682 l 189 24 b 189 18 193 14 199 14 l 275 14 b 281 14 285 18 285 24 l 285 682 z"},"M":{"x_min":0,"x_max":543,"ha":543,"o":"m 143 425 b 183 303 222 182 261 60 b 262 56 266 52 270 52 b 275 52 279 56 280 60 l 317 172 b 344 255 371 338 398 421 l 398 24 b 398 19 402 14 407 14 l 483 14 b 489 14 493 18 493 24 l 493 768 b 493 774 489 778 483 778 l 416 778 b 403 778 402 751 400 743 l 400 744 l 270 345 l 141 745 b 137 758 135 769 124 778 l 58 778 b 52 778 50 773 50 768 l 50 24 b 50 19 52 14 58 14 l 133 14 b 139 14 143 18 143 24 l 143 425 z"},"g":{"x_min":0,"x_max":488,"ha":488,"o":"m 352 384 b 346 384 342 380 342 374 l 342 216 b 342 159 306 108 245 108 b 192 108 145 153 145 207 l 145 585 b 145 640 191 682 245 682 b 309 682 342 631 342 572 b 342 558 334 490 352 490 l 428 490 b 434 490 438 494 438 500 l 438 768 b 438 774 434 778 428 778 b 399 778 371 768 355 742 b 323 765 284 778 245 778 b 193 778 145 759 108 722 l 109 722 b 72 686 50 637 50 585 l 50 207 b 50 99 138 14 245 14 b 283 14 322 26 355 46 b 372 23 400 12 428 12 b 434 12 438 16 438 22 l 438 374 b 438 380 434 384 428 384 l 352 384 z"},"j":{"x_min":0,"x_max":489,"ha":489,"o":"m 50 292 l 50 207 b 50 97 136 14 245 14 b 353 14 439 98 439 207 l 439 768 b 439 774 435 778 429 778 l 353 778 b 347 778 343 774 343 768 l 343 207 b 343 181 332 156 315 137 l 315 138 b 297 120 271 108 245 108 b 219 108 193 119 175 138 l 175 137 b 134 180 146 237 146 292 b 146 298 142 302 136 302 l 60 302 b 54 302 50 298 50 292 z"},"i":{"x_min":0,"x_max":196,"ha":196,"o":"m 60 14 l 136 14 b 142 14 146 18 146 24 l 146 768 b 146 774 142 778 136 778 l 60 778 b 54 778 50 774 50 768 l 50 24 b 50 18 54 14 60 14 z"},"y":{"x_min":0,"x_max":462,"ha":462,"o":"m 142 778 l 60 778 b 54 778 50 772 50 766 b 50 759 162 496 181 447 l 181 24 b 181 18 185 14 191 14 l 267 14 b 273 14 277 18 277 24 l 277 439 b 289 467 412 758 412 766 b 412 772 408 778 402 778 l 321 778 b 317 778 314 776 312 772 b 303 755 296 735 289 716 b 269 671 250 625 232 579 l 151 772 b 149 776 146 778 142 778 z"},"@":{"x_min":0,"x_max":809,"ha":809,"o":"m 437 40 b 450 19 471 7 509 7 b 565 7 614 31 660 80 b 712 134 737 195 737 265 b 737 315 726 360 701 401 b 644 497 541 546 417 546 b 259 546 146 475 85 346 b 60 292 48 238 48 180 b 48 129 58 81 79 35 b 128 -74 260 -144 425 -141 b 481 -141 535 -132 577 -118 b 661 -89 729 -28 754 19 b 758 26 753 34 745 34 l 680 34 b 678 34 673 32 672 30 b 630 -26 546 -70 424 -70 b 249 -73 115 18 121 186 b 121 238 134 287 158 333 b 208 425 304 476 415 476 b 560 479 670 375 664 266 b 664 203 631 137 578 103 b 560 90 544 84 534 84 b 525 84 518 90 518 97 b 518 98 520 109 525 131 b 526 136 528 141 529 148 l 581 382 b 582 389 578 394 572 394 l 507 394 b 503 394 498 390 497 386 l 490 352 b 461 385 422 404 384 404 b 356 404 326 393 295 373 b 263 353 237 325 217 288 b 196 250 186 211 186 173 b 184 74 260 4 328 7 b 364 7 401 24 432 53 b 433 48 435 43 437 40 z m 273 169 b 273 206 290 256 313 289 b 338 320 361 332 389 332 b 430 332 463 299 463 243 b 463 198 446 150 419 121 l 420 121 b 394 93 365 78 340 78 b 305 78 273 111 273 169 z"},".":{"x_min":0,"x_max":196,"ha":196,"o":"m 50 20 b 50 14 54 10 60 10 l 136 10 b 142 10 146 14 146 20 l 146 100 b 146 106 142 110 136 110 l 60 110 b 54 110 50 106 50 100 z"},"p":{"x_min":0,"x_max":471,"ha":471,"o":"m 60 14 l 135 14 b 141 14 145 18 145 24 l 145 391 l 311 391 b 340 391 369 403 388 425 l 388 424 b 409 445 421 473 421 503 l 421 666 b 421 724 370 778 311 778 l 60 778 b 54 778 50 774 50 768 l 50 24 b 50 18 54 14 60 14 z m 311 486 l 145 486 l 145 682 l 311 682 b 316 682 325 671 325 666 l 325 503 b 325 499 321 494 320 490 b 319 489 312 486 311 486 z"},"X":{"x_min":0,"x_max":558,"ha":558,"o":"m 190 778 l 108 778 b 102 778 98 772 98 766 b 98 759 214 481 225 454 b 211 420 50 33 50 25 b 50 21 52 14 58 14 l 140 14 b 144 14 147 16 149 20 b 195 119 235 226 277 327 l 406 20 b 408 16 412 14 416 14 l 498 14 b 504 14 508 19 508 25 b 508 32 345 421 331 454 b 342 480 460 760 460 767 b 460 773 456 778 450 778 l 368 778 b 364 778 360 776 358 772 l 277 578 b 264 611 204 778 190 778 z"},"*":{"x_min":0,"x_max":424,"ha":424,"o":"m 50 620 b 50 614 54 610 60 610 l 123 610 l 92 555 b 89 550 90 545 95 542 l 164 502 b 170 499 175 500 178 505 l 210 560 l 242 505 b 245 500 250 498 255 501 l 325 541 b 330 544 331 550 328 555 l 296 610 l 360 610 b 366 610 370 614 370 620 l 370 700 b 370 706 366 710 360 710 l 296 710 l 328 765 b 331 770 330 775 325 778 l 256 818 b 250 821 245 820 242 815 l 210 759 l 178 815 b 175 820 170 822 165 819 l 95 779 b 90 776 89 770 92 765 l 123 710 l 60 710 b 54 710 50 706 50 700 z"},"Y":{"x_min":0,"x_max":462,"ha":462,"o":"m 142 778 l 60 778 b 54 778 50 772 50 766 b 50 759 162 496 181 447 l 181 24 b 181 18 185 14 191 14 l 267 14 b 273 14 277 18 277 24 l 277 439 b 289 467 412 758 412 766 b 412 772 408 778 402 778 l 321 778 b 317 778 314 776 312 772 b 303 755 296 735 289 716 b 269 671 250 625 232 579 l 151 772 b 149 776 146 778 142 778 z"},"c":{"x_min":0,"x_max":488,"ha":488,"o":"m 352 302 b 346 302 342 298 342 292 l 342 207 b 342 181 329 156 312 137 l 312 138 b 295 121 270 108 245 108 b 189 108 145 151 145 207 l 145 585 b 145 638 193 682 245 682 b 296 682 342 636 342 585 l 342 500 b 342 494 346 490 352 490 l 428 490 b 434 490 438 494 438 500 l 438 768 b 438 774 434 778 428 778 b 398 778 374 763 360 737 b 327 761 287 778 245 778 b 136 778 50 695 50 585 l 50 207 b 50 95 133 14 245 14 b 353 14 438 99 438 207 l 438 292 b 438 298 434 302 428 302 l 352 302 z"},"!":{"x_min":0,"x_max":196,"ha":196,"o":"m 136 227 b 142 227 146 231 146 237 l 146 768 b 146 774 142 778 136 778 l 60 778 b 54 778 50 774 50 768 l 50 237 b 50 231 54 227 60 227 z m 50 20 b 50 14 54 10 60 10 l 136 10 b 142 10 146 14 146 20 l 146 100 b 146 106 142 110 136 110 l 60 110 b 54 110 50 106 50 100 z"},"/":{"x_min":0,"x_max":565,"ha":565,"o":"m 91 -152 b 98 -152 104 -148 107 -142 l 571 871 b 573 877 570 881 563 881 l 474 881 b 467 881 461 877 459 871 l -5 -142 b -8 -148 -5 -152 2 -152 l 91 -152 z"},"[":{"x_min":0,"x_max":278,"ha":278,"o":"m 262 -76 l 262 -3 l 156 -3 l 156 766 l 262 766 l 262 839 l 68 839 l 68 -76 z"},"6":{"x_min":0,"x_max":489,"ha":489,"o":"m 438 317 b 438 424 352 510 245 510 b 208 510 174 500 145 483 l 146 585 b 146 655 194 682 246 682 b 297 682 343 637 343 585 l 343 563 b 343 557 347 553 353 553 l 429 553 b 435 553 439 557 439 563 l 438 574 b 437 678 350 778 246 778 b 130 778 47 682 48 569 l 50 280 l 50 207 b 50 96 135 14 245 14 b 354 14 438 98 438 207 z m 342 207 b 342 181 331 156 314 137 l 314 138 b 296 120 271 108 245 108 b 193 108 145 155 145 207 l 145 317 b 145 371 192 414 245 414 b 299 414 342 371 342 317 z"},"r":{"x_min":0,"x_max":491,"ha":491,"o":"m 60 14 l 135 14 b 141 14 145 18 145 24 l 145 391 l 311 391 b 318 388 321 384 325 378 l 325 24 b 325 18 329 14 335 14 l 431 14 b 437 14 441 18 441 24 b 441 32 421 41 421 61 l 421 378 b 421 400 414 422 401 440 b 414 458 421 481 421 503 l 421 666 b 421 727 373 778 311 778 l 60 778 b 54 778 50 774 50 768 l 50 24 b 50 18 54 14 60 14 z m 145 486 l 145 682 l 311 682 b 317 680 325 673 325 666 l 325 503 b 325 499 321 494 320 490 b 319 489 313 486 311 486 z"},"2":{"x_min":0,"x_max":488,"ha":488,"o":"m 45 21 b 45 15 49 11 55 11 l 439 11 b 445 11 449 15 449 21 l 449 101 b 449 107 445 111 439 111 l 163 111 b 232 254 438 359 441 569 b 442 682 359 778 243 778 b 139 778 52 678 51 574 l 50 536 b 50 530 54 526 60 526 l 136 526 b 142 526 146 530 146 536 l 146 585 b 146 637 192 682 243 682 b 295 682 343 655 343 585 b 343 359 54 292 45 37 z"},"{":{"x_min":0,"x_max":334,"ha":334,"o":"m 28 351 b 77 350 111 322 120 277 b 125 255 128 215 128 156 b 129 97 131 55 135 29 b 140 4 149 -17 162 -34 b 176 -51 193 -63 214 -71 b 228 -76 251 -78 283 -78 l 311 -78 l 311 -2 l 295 -2 b 234 -2 218 14 213 58 b 212 70 211 108 211 171 b 211 241 203 291 187 322 b 171 353 145 376 109 391 b 140 406 162 422 176 441 b 190 460 200 487 206 522 b 209 544 211 598 211 683 b 211 726 217 753 228 765 b 239 777 262 783 295 783 l 311 783 l 311 860 l 283 860 b 255 860 235 858 223 855 b 170 840 140 808 132 727 b 130 710 129 674 128 619 b 128 565 125 527 120 504 b 111 459 77 432 28 431 z"},"9":{"x_min":0,"x_max":489,"ha":489,"o":"m 48 475 b 48 368 134 282 241 282 b 278 282 312 292 341 309 l 340 207 b 340 137 292 110 240 110 b 189 110 143 155 143 207 l 143 229 b 143 235 139 239 133 239 l 57 239 b 51 239 47 235 47 229 l 48 218 b 49 114 136 14 240 14 b 356 14 439 110 438 223 l 436 512 l 436 585 b 436 696 351 778 241 778 b 132 778 48 694 48 585 z m 144 585 b 144 611 155 636 172 655 l 172 654 b 190 672 215 684 241 684 b 293 684 341 637 341 585 l 341 475 b 341 421 294 378 241 378 b 187 378 144 421 144 475 z"}," ":{"x_min":0,"x_max":177,"ha":177,"o":""},"I":{"x_min":0,"x_max":196,"ha":196,"o":"m 60 14 l 136 14 b 142 14 146 18 146 24 l 146 768 b 146 774 142 778 136 778 l 60 778 b 54 778 50 774 50 768 l 50 24 b 50 18 54 14 60 14 z"},"H":{"x_min":0,"x_max":471,"ha":471,"o":"m 60 14 l 136 14 b 142 14 146 18 146 24 l 146 391 l 326 391 l 326 24 b 326 18 330 14 336 14 l 411 14 b 417 14 421 18 421 24 l 421 768 b 421 774 417 778 411 778 l 336 778 b 330 778 326 774 326 768 l 326 486 l 146 486 l 146 768 b 146 774 142 778 136 778 l 60 778 b 54 778 50 774 50 768 l 50 24 b 50 18 54 14 60 14 z"},"4":{"x_min":0,"x_max":444,"ha":444,"o":"m 47 131 b 47 125 51 121 57 121 l 267 121 l 267 24 b 267 18 271 14 277 14 l 353 14 b 359 14 363 18 363 24 l 363 121 l 403 121 b 409 121 413 125 413 131 l 413 211 b 413 217 409 221 403 221 l 363 221 l 363 768 b 363 774 359 778 353 778 l 277 778 b 271 778 267 774 267 768 l 51 225 b 49 220 48 210 48 207 z m 138 221 l 267 545 l 267 221 z"},"~":{"x_min":0,"x_max":584,"ha":584,"o":"m 42 272 b 97 325 129 338 170 338 b 195 338 227 329 266 312 b 305 295 333 285 350 280 b 368 275 387 273 407 273 b 460 273 501 289 542 329 l 542 432 b 507 393 459 365 416 365 b 393 365 376 369 332 388 b 292 405 261 417 240 422 b 219 428 198 431 178 431 b 122 431 77 411 42 372 l 42 272 z"},"D":{"x_min":0,"x_max":472,"ha":472,"o":"m 60 14 l 312 14 b 372 14 422 62 422 122 l 422 666 b 422 725 371 778 312 778 l 60 778 b 54 778 50 774 50 768 l 50 24 b 50 18 54 14 60 14 z m 146 682 l 312 682 b 317 679 326 673 326 666 l 326 122 b 326 116 318 108 312 108 l 146 108 z"},"^":{"x_min":0,"x_max":469,"ha":469,"o":"m 234 628 l 354 337 l 443 337 l 270 728 l 199 728 l 26 337 l 117 337 z"},"0":{"x_min":0,"x_max":488,"ha":488,"o":"m 438 207 l 438 585 b 438 692 352 778 245 778 b 137 778 50 694 50 585 l 50 207 b 50 96 135 14 245 14 b 354 14 438 98 438 207 z m 342 585 l 342 207 b 342 181 331 156 314 137 l 314 138 b 296 120 271 108 245 108 b 193 108 145 155 145 207 l 145 585 b 145 639 192 682 245 682 b 299 682 342 639 342 585 z"},"F":{"x_min":0,"x_max":471,"ha":471,"o":"m 145 391 l 277 391 b 283 391 287 395 287 401 l 287 476 b 287 482 283 486 277 486 l 145 486 l 145 682 l 411 682 b 417 682 421 686 421 692 l 421 768 b 421 774 417 778 411 778 l 60 778 b 54 778 50 774 50 768 l 50 24 b 50 18 54 14 60 14 l 135 14 b 141 14 145 18 145 24 l 145 391 z"},"`":{"x_min":0,"x_max":196,"ha":196,"o":"m 176 801 b 182 801 186 805 186 811 l 108 930 b 108 936 104 940 98 940 l -4 940 b -10 940 -14 936 -14 930 l 117 811 b 117 805 121 801 127 801 z"},"k":{"x_min":0,"x_max":503,"ha":503,"o":"m 444 778 l 354 778 b 352 778 350 778 348 777 l 146 467 l 146 768 b 146 774 142 778 136 778 l 60 778 b 54 778 50 774 50 768 l 50 24 b 50 18 54 14 60 14 l 136 14 b 142 14 146 18 146 24 l 146 292 b 161 313 174 335 186 357 l 318 30 b 319 27 327 14 331 14 l 411 14 b 417 14 421 20 421 26 b 421 34 265 419 251 454 b 269 482 453 756 453 769 b 453 775 449 778 444 778 z"},"u":{"x_min":0,"x_max":488,"ha":488,"o":"m 353 778 b 347 778 343 774 343 768 l 343 207 b 343 154 298 108 245 108 b 219 108 194 119 176 138 l 176 137 b 158 156 145 180 145 207 l 145 768 b 145 774 141 778 135 778 l 60 778 b 54 778 50 774 50 768 l 50 207 b 50 97 136 14 245 14 b 355 14 438 97 438 207 l 438 768 b 438 774 434 778 428 778 l 353 778 z"},"]":{"x_min":0,"x_max":278,"ha":278,"o":"m 262 -76 l 262 839 l 68 839 l 68 766 l 174 766 l 174 -3 l 68 -3 l 68 -76 z"},"U":{"x_min":0,"x_max":488,"ha":488,"o":"m 353 778 b 347 778 343 774 343 768 l 343 207 b 343 154 298 108 245 108 b 219 108 194 119 176 138 l 176 137 b 158 156 145 180 145 207 l 145 768 b 145 774 141 778 135 778 l 60 778 b 54 778 50 774 50 768 l 50 207 b 50 97 136 14 245 14 b 355 14 438 97 438 207 l 438 768 b 438 774 434 778 428 778 l 353 778 z"},"o":{"x_min":0,"x_max":488,"ha":488,"o":"m 438 207 l 438 585 b 438 692 352 778 245 778 b 137 778 50 694 50 585 l 50 207 b 50 96 135 14 245 14 b 354 14 438 98 438 207 z m 342 585 l 342 207 b 342 181 331 156 314 137 l 314 138 b 296 120 271 108 245 108 b 193 108 145 155 145 207 l 145 585 b 145 639 192 682 245 682 b 299 682 342 639 342 585 z"},"N":{"x_min":0,"x_max":471,"ha":471,"o":"m 326 303 l 142 748 b 139 755 133 778 122 778 l 60 778 b 54 778 50 774 50 768 l 50 24 b 50 18 54 14 60 14 l 136 14 b 142 14 146 18 146 24 l 146 488 l 329 41 b 332 33 336 14 348 14 l 411 14 b 417 14 421 18 421 24 l 421 768 b 421 774 417 778 411 778 l 336 778 b 330 778 326 774 326 768 l 326 303 z"},"+":{"x_min":0,"x_max":424,"ha":424,"o":"m 50 309 b 50 303 54 299 60 299 l 160 299 l 160 199 b 160 193 164 189 170 189 l 250 189 b 256 189 260 193 260 199 l 260 299 l 360 299 b 366 299 370 303 370 309 l 370 389 b 370 395 366 399 360 399 l 260 399 l 260 499 b 260 505 256 509 250 509 l 170 509 b 164 509 160 505 160 499 l 160 399 l 60 399 b 54 399 50 395 50 389 z"},"G":{"x_min":0,"x_max":488,"ha":488,"o":"m 352 384 b 346 384 342 380 342 374 l 342 216 b 342 159 306 108 245 108 b 192 108 145 153 145 207 l 145 585 b 145 640 191 682 245 682 b 309 682 342 631 342 572 b 342 558 334 490 352 490 l 428 490 b 434 490 438 494 438 500 l 438 768 b 438 774 434 778 428 778 b 399 778 371 768 355 742 b 323 765 284 778 245 778 b 193 778 145 759 108 722 l 109 722 b 72 686 50 637 50 585 l 50 207 b 50 99 138 14 245 14 b 283 14 322 26 355 46 b 372 23 400 12 428 12 b 434 12 438 16 438 22 l 438 374 b 438 380 434 384 428 384 l 352 384 z"},"q":{"x_min":0,"x_max":513,"ha":513,"o":"m 438 207 l 438 585 b 438 689 349 778 245 778 b 138 778 50 692 50 585 l 50 207 b 50 99 138 14 245 14 b 285 14 324 23 357 48 b 364 41 389 13 397 13 b 400 13 403 14 405 16 l 404 16 b 414 25 463 65 463 76 b 463 84 426 117 418 125 b 430 151 438 179 438 207 z m 341 201 l 350 193 l 341 189 l 341 201 z m 195 215 b 195 204 275 130 287 118 b 275 113 258 108 245 108 b 192 108 145 153 145 207 l 145 585 b 145 640 191 682 245 682 b 299 682 342 639 342 585 l 342 207 b 342 205 341 203 341 201 l 266 277 l 260 279 b 257 280 253 278 252 275 l 252 277 b 243 268 195 225 195 215 z"},"d":{"x_min":0,"x_max":472,"ha":472,"o":"m 60 14 l 312 14 b 372 14 422 62 422 122 l 422 666 b 422 725 371 778 312 778 l 60 778 b 54 778 50 774 50 768 l 50 24 b 50 18 54 14 60 14 z m 146 682 l 312 682 b 317 679 326 673 326 666 l 326 122 b 326 116 318 108 312 108 l 146 108 z"},"1":{"x_min":0,"x_max":289,"ha":289,"o":"m 81 548 b 86 544 91 545 95 550 l 148 618 l 148 24 b 148 18 152 14 158 14 l 234 14 b 240 14 244 18 244 24 l 244 768 b 244 774 240 778 234 778 l 160 778 b 156 781 150 779 148 775 l 19 608 b 15 603 16 598 21 594 z"},"5":{"x_min":0,"x_max":489,"ha":489,"o":"m 60 778 b 54 778 50 774 50 768 l 50 374 b 50 368 54 364 60 364 l 136 364 b 142 364 146 366 146 374 l 146 404 b 152 452 196 489 245 489 b 299 489 342 446 342 392 l 342 207 b 342 181 331 156 314 137 l 314 138 b 296 120 271 108 245 108 b 193 108 145 155 145 207 l 145 229 l 50 229 l 50 207 b 50 96 135 14 245 14 b 354 14 438 98 438 207 l 438 392 b 438 499 352 585 245 585 b 209 585 175 575 146 559 l 146 684 l 412 684 b 418 684 422 687 422 693 l 422 768 b 422 774 418 778 412 778 l 60 778 z"}}}
